<svg xmlns="http://www.w3.org/2000/svg" version="1.1" xmlns:xlink="http://www.w3.org/1999/xlink" xmlns:svgjs="http://svgjs.dev/svgjs" width="720" height="1612" preserveAspectRatio="none" viewBox="0 0 720 1612"><g mask="url(&quot;#SvgjsMask1056&quot;)" fill="none"><rect width="720" height="1612" x="0" y="0" fill="url(&quot;#SvgjsLinearGradient1057&quot;)"></rect><path d="M-75.28 1124.51L-75.28 1124.51" stroke="#132e65" stroke-width="1.5"></path><path d="M-75.28 1124.51L-64.56 1279.15" stroke="#132e65" stroke-width="1.5"></path><path d="M-75.28 1124.51L81.69 1144.57" stroke="#132e65" stroke-width="1.5"></path><path d="M-64.56 1279.15L-64.56 1279.15" stroke="#132e65" stroke-width="1.5"></path><path d="M-64.56 1279.15L60.58 1281.19" stroke="#132e65" stroke-width="1.5"></path><path d="M-64.56 1279.15L-88.28 1446.3" stroke="#132e65" stroke-width="1.5"></path><path d="M-64.56 1279.15L59.18 1412.52" stroke="#132e65" stroke-width="1.5"></path><path d="M-64.56 1279.15L81.69 1144.57" stroke="#132e65" stroke-width="1.5"></path><path d="M-88.28 1446.3L-88.28 1446.3" stroke="#132e65" stroke-width="1.5"></path><path d="M-88.28 1446.3L-59.38 1585.48" stroke="#132e65" stroke-width="1.5"></path><path d="M-88.28 1446.3L59.18 1412.52" stroke="#132e65" stroke-width="1.5"></path><path d="M-88.28 1446.3L60.58 1281.19" stroke="#132e65" stroke-width="1.5"></path><path d="M-88.28 1446.3L99.86 1571.85" stroke="#132e65" stroke-width="1.5"></path><path d="M-59.38 1585.48L-59.38 1585.48" stroke="#132e65" stroke-width="1.5"></path><path d="M-59.38 1585.48L-39.7 1694.33" stroke="#132e65" stroke-width="1.5"></path><path d="M-59.38 1585.48L56.2 1688.74" stroke="#132e65" stroke-width="1.5"></path><path d="M-39.7 1694.33L-39.7 1694.33" stroke="#132e65" stroke-width="1.5"></path><path d="M-39.7 1694.33L56.2 1688.74" stroke="#132e65" stroke-width="1.5"></path><path d="M-39.7 1694.33L99.86 1571.85" stroke="#132e65" stroke-width="1.5"></path><path d="M-39.7 1694.33L-88.28 1446.3" stroke="#132e65" stroke-width="1.5"></path><path d="M-39.7 1694.33L216.73 1568.13" stroke="#132e65" stroke-width="1.5"></path><path d="M58.75 981.55L58.75 981.55" stroke="#132e65" stroke-width="1.5"></path><path d="M58.75 981.55L218.29 943.78" stroke="#132e65" stroke-width="1.5"></path><path d="M58.75 981.55L81.69 1144.57" stroke="#132e65" stroke-width="1.5"></path><path d="M58.75 981.55L207.44 1099.01" stroke="#132e65" stroke-width="1.5"></path><path d="M58.75 981.55L-75.28 1124.51" stroke="#132e65" stroke-width="1.5"></path><path d="M58.75 981.55L234.38 857.62" stroke="#132e65" stroke-width="1.5"></path><path d="M81.69 1144.57L81.69 1144.57" stroke="#132e65" stroke-width="1.5"></path><path d="M81.69 1144.57L207.44 1099.01" stroke="#132e65" stroke-width="1.5"></path><path d="M81.69 1144.57L60.58 1281.19" stroke="#132e65" stroke-width="1.5"></path><path d="M81.69 1144.57L199.36 1267" stroke="#132e65" stroke-width="1.5"></path><path d="M60.58 1281.19L60.58 1281.19" stroke="#132e65" stroke-width="1.5"></path><path d="M60.58 1281.19L59.18 1412.52" stroke="#132e65" stroke-width="1.5"></path><path d="M60.58 1281.19L199.36 1267" stroke="#132e65" stroke-width="1.5"></path><path d="M60.58 1281.19L-75.28 1124.51" stroke="#132e65" stroke-width="1.5"></path><path d="M60.58 1281.19L193.2 1454.7" stroke="#132e65" stroke-width="1.5"></path><path d="M59.18 1412.52L59.18 1412.52" stroke="#132e65" stroke-width="1.5"></path><path d="M59.18 1412.52L193.2 1454.7" stroke="#132e65" stroke-width="1.5"></path><path d="M59.18 1412.52L99.86 1571.85" stroke="#132e65" stroke-width="1.5"></path><path d="M99.86 1571.85L99.86 1571.85" stroke="#132e65" stroke-width="1.5"></path><path d="M99.86 1571.85L216.73 1568.13" stroke="#132e65" stroke-width="1.5"></path><path d="M99.86 1571.85L56.2 1688.74" stroke="#132e65" stroke-width="1.5"></path><path d="M99.86 1571.85L193.2 1454.7" stroke="#132e65" stroke-width="1.5"></path><path d="M56.2 1688.74L56.2 1688.74" stroke="#132e65" stroke-width="1.5"></path><path d="M234.38 857.62L234.38 857.62" stroke="#132e65" stroke-width="1.5"></path><path d="M234.38 857.62L218.29 943.78" stroke="#132e65" stroke-width="1.5"></path><path d="M234.38 857.62L367.39 848.05" stroke="#132e65" stroke-width="1.5"></path><path d="M234.38 857.62L390.74 940.3" stroke="#132e65" stroke-width="1.5"></path><path d="M218.29 943.78L218.29 943.78" stroke="#132e65" stroke-width="1.5"></path><path d="M207.44 1099.01L207.44 1099.01" stroke="#132e65" stroke-width="1.5"></path><path d="M207.44 1099.01L218.29 943.78" stroke="#132e65" stroke-width="1.5"></path><path d="M207.44 1099.01L358.25 1150.11" stroke="#132e65" stroke-width="1.5"></path><path d="M207.44 1099.01L199.36 1267" stroke="#132e65" stroke-width="1.5"></path><path d="M207.44 1099.01L60.58 1281.19" stroke="#132e65" stroke-width="1.5"></path><path d="M199.36 1267L199.36 1267" stroke="#132e65" stroke-width="1.5"></path><path d="M193.2 1454.7L193.2 1454.7" stroke="#132e65" stroke-width="1.5"></path><path d="M193.2 1454.7L216.73 1568.13" stroke="#132e65" stroke-width="1.5"></path><path d="M193.2 1454.7L199.36 1267" stroke="#132e65" stroke-width="1.5"></path><path d="M216.73 1568.13L216.73 1568.13" stroke="#132e65" stroke-width="1.5"></path><path d="M249.84 1739.67L249.84 1739.67" stroke="#132e65" stroke-width="1.5"></path><path d="M249.84 1739.67L384.33 1739.76" stroke="#132e65" stroke-width="1.5"></path><path d="M249.84 1739.67L216.73 1568.13" stroke="#132e65" stroke-width="1.5"></path><path d="M369.77 686.55L369.77 686.55" stroke="#132e65" stroke-width="1.5"></path><path d="M369.77 686.55L367.39 848.05" stroke="#132e65" stroke-width="1.5"></path><path d="M369.77 686.55L234.38 857.62" stroke="#132e65" stroke-width="1.5"></path><path d="M369.77 686.55L533.87 835.58" stroke="#132e65" stroke-width="1.5"></path><path d="M367.39 848.05L367.39 848.05" stroke="#132e65" stroke-width="1.5"></path><path d="M367.39 848.05L390.74 940.3" stroke="#132e65" stroke-width="1.5"></path><path d="M367.39 848.05L533.87 835.58" stroke="#132e65" stroke-width="1.5"></path><path d="M390.74 940.3L390.74 940.3" stroke="#132e65" stroke-width="1.5"></path><path d="M390.74 940.3L527.24 998.39" stroke="#132e65" stroke-width="1.5"></path><path d="M358.25 1150.11L358.25 1150.11" stroke="#132e65" stroke-width="1.5"></path><path d="M358.25 1150.11L499.88 1137.84" stroke="#132e65" stroke-width="1.5"></path><path d="M403.6 1307.45L403.6 1307.45" stroke="#132e65" stroke-width="1.5"></path><path d="M403.6 1307.45L562.01 1296.96" stroke="#132e65" stroke-width="1.5"></path><path d="M403.6 1307.45L358.25 1150.11" stroke="#132e65" stroke-width="1.5"></path><path d="M384.33 1739.76L384.33 1739.76" stroke="#132e65" stroke-width="1.5"></path><path d="M384.33 1739.76L545.9 1692.11" stroke="#132e65" stroke-width="1.5"></path><path d="M384.33 1739.76L548.46 1606.72" stroke="#132e65" stroke-width="1.5"></path><path d="M384.33 1739.76L216.73 1568.13" stroke="#132e65" stroke-width="1.5"></path><path d="M384.33 1739.76L699.6 1711.58" stroke="#132e65" stroke-width="1.5"></path><path d="M499.34 -38.5L499.34 -38.5" stroke="#132e65" stroke-width="1.5"></path><path d="M499.34 -38.5L553.31 45.74" stroke="#132e65" stroke-width="1.5"></path><path d="M499.34 -38.5L690.58 -77.46" stroke="#132e65" stroke-width="1.5"></path><path d="M553.31 45.74L553.31 45.74" stroke="#132e65" stroke-width="1.5"></path><path d="M553.31 45.74L542.57 217.29" stroke="#132e65" stroke-width="1.5"></path><path d="M553.31 45.74L690.58 -77.46" stroke="#132e65" stroke-width="1.5"></path><path d="M553.31 45.74L694.13 216.71" stroke="#132e65" stroke-width="1.5"></path><path d="M542.57 217.29L542.57 217.29" stroke="#132e65" stroke-width="1.5"></path><path d="M542.57 217.29L510.91 350.43" stroke="#132e65" stroke-width="1.5"></path><path d="M542.57 217.29L694.13 216.71" stroke="#132e65" stroke-width="1.5"></path><path d="M542.57 217.29L704.61 356.43" stroke="#132e65" stroke-width="1.5"></path><path d="M542.57 217.29L499.34 -38.5" stroke="#132e65" stroke-width="1.5"></path><path d="M542.57 217.29L811.38 238.28" stroke="#132e65" stroke-width="1.5"></path><path d="M510.91 350.43L510.91 350.43" stroke="#132e65" stroke-width="1.5"></path><path d="M510.91 350.43L524.32 514.19" stroke="#132e65" stroke-width="1.5"></path><path d="M524.32 514.19L524.32 514.19" stroke="#132e65" stroke-width="1.5"></path><path d="M524.32 514.19L691.14 562.46" stroke="#132e65" stroke-width="1.5"></path><path d="M524.32 514.19L702.05 637.81" stroke="#132e65" stroke-width="1.5"></path><path d="M524.32 514.19L369.77 686.55" stroke="#132e65" stroke-width="1.5"></path><path d="M524.32 514.19L704.61 356.43" stroke="#132e65" stroke-width="1.5"></path><path d="M524.32 514.19L790.69 509.23" stroke="#132e65" stroke-width="1.5"></path><path d="M533.87 835.58L533.87 835.58" stroke="#132e65" stroke-width="1.5"></path><path d="M533.87 835.58L675.67 862.33" stroke="#132e65" stroke-width="1.5"></path><path d="M533.87 835.58L527.24 998.39" stroke="#132e65" stroke-width="1.5"></path><path d="M527.24 998.39L527.24 998.39" stroke="#132e65" stroke-width="1.5"></path><path d="M527.24 998.39L499.88 1137.84" stroke="#132e65" stroke-width="1.5"></path><path d="M499.88 1137.84L499.88 1137.84" stroke="#132e65" stroke-width="1.5"></path><path d="M562.01 1296.96L562.01 1296.96" stroke="#132e65" stroke-width="1.5"></path><path d="M562.01 1296.96L559.63 1414.04" stroke="#132e65" stroke-width="1.5"></path><path d="M562.01 1296.96L710.14 1256.11" stroke="#132e65" stroke-width="1.5"></path><path d="M562.01 1296.96L499.88 1137.84" stroke="#132e65" stroke-width="1.5"></path><path d="M562.01 1296.96L647.64 1445.29" stroke="#132e65" stroke-width="1.5"></path><path d="M559.63 1414.04L559.63 1414.04" stroke="#132e65" stroke-width="1.5"></path><path d="M559.63 1414.04L647.64 1445.29" stroke="#132e65" stroke-width="1.5"></path><path d="M559.63 1414.04L403.6 1307.45" stroke="#132e65" stroke-width="1.5"></path><path d="M559.63 1414.04L548.46 1606.72" stroke="#132e65" stroke-width="1.5"></path><path d="M548.46 1606.72L548.46 1606.72" stroke="#132e65" stroke-width="1.5"></path><path d="M548.46 1606.72L545.9 1692.11" stroke="#132e65" stroke-width="1.5"></path><path d="M548.46 1606.72L686.98 1607.77" stroke="#132e65" stroke-width="1.5"></path><path d="M548.46 1606.72L699.6 1711.58" stroke="#132e65" stroke-width="1.5"></path><path d="M548.46 1606.72L647.64 1445.29" stroke="#132e65" stroke-width="1.5"></path><path d="M545.9 1692.11L545.9 1692.11" stroke="#132e65" stroke-width="1.5"></path><path d="M545.9 1692.11L699.6 1711.58" stroke="#132e65" stroke-width="1.5"></path><path d="M545.9 1692.11L686.98 1607.77" stroke="#132e65" stroke-width="1.5"></path><path d="M545.9 1692.11L647.64 1445.29" stroke="#132e65" stroke-width="1.5"></path><path d="M690.58 -77.46L690.58 -77.46" stroke="#132e65" stroke-width="1.5"></path><path d="M690.58 -77.46L826.32 -94.49" stroke="#132e65" stroke-width="1.5"></path><path d="M690.58 -77.46L832.02 102.8" stroke="#132e65" stroke-width="1.5"></path><path d="M690.58 -77.46L694.13 216.71" stroke="#132e65" stroke-width="1.5"></path><path d="M694.13 216.71L694.13 216.71" stroke="#132e65" stroke-width="1.5"></path><path d="M694.13 216.71L811.38 238.28" stroke="#132e65" stroke-width="1.5"></path><path d="M694.13 216.71L704.61 356.43" stroke="#132e65" stroke-width="1.5"></path><path d="M694.13 216.71L832.02 102.8" stroke="#132e65" stroke-width="1.5"></path><path d="M694.13 216.71L848.55 345.49" stroke="#132e65" stroke-width="1.5"></path><path d="M704.61 356.43L704.61 356.43" stroke="#132e65" stroke-width="1.5"></path><path d="M704.61 356.43L848.55 345.49" stroke="#132e65" stroke-width="1.5"></path><path d="M704.61 356.43L811.38 238.28" stroke="#132e65" stroke-width="1.5"></path><path d="M704.61 356.43L790.69 509.23" stroke="#132e65" stroke-width="1.5"></path><path d="M704.61 356.43L510.91 350.43" stroke="#132e65" stroke-width="1.5"></path><path d="M704.61 356.43L691.14 562.46" stroke="#132e65" stroke-width="1.5"></path><path d="M691.14 562.46L691.14 562.46" stroke="#132e65" stroke-width="1.5"></path><path d="M691.14 562.46L702.05 637.81" stroke="#132e65" stroke-width="1.5"></path><path d="M691.14 562.46L790.69 509.23" stroke="#132e65" stroke-width="1.5"></path><path d="M691.14 562.46L809.15 658.25" stroke="#132e65" stroke-width="1.5"></path><path d="M702.05 637.81L702.05 637.81" stroke="#132e65" stroke-width="1.5"></path><path d="M702.05 637.81L809.15 658.25" stroke="#132e65" stroke-width="1.5"></path><path d="M702.05 637.81L790.69 509.23" stroke="#132e65" stroke-width="1.5"></path><path d="M675.67 862.33L675.67 862.33" stroke="#132e65" stroke-width="1.5"></path><path d="M675.67 862.33L849.57 792.8" stroke="#132e65" stroke-width="1.5"></path><path d="M675.67 862.33L527.24 998.39" stroke="#132e65" stroke-width="1.5"></path><path d="M675.67 862.33L848.16 971.6" stroke="#132e65" stroke-width="1.5"></path><path d="M654.05 1151.71L654.05 1151.71" stroke="#132e65" stroke-width="1.5"></path><path d="M654.05 1151.71L710.14 1256.11" stroke="#132e65" stroke-width="1.5"></path><path d="M654.05 1151.71L804.23 1122.19" stroke="#132e65" stroke-width="1.5"></path><path d="M654.05 1151.71L499.88 1137.84" stroke="#132e65" stroke-width="1.5"></path><path d="M710.14 1256.11L710.14 1256.11" stroke="#132e65" stroke-width="1.5"></path><path d="M710.14 1256.11L804.23 1122.19" stroke="#132e65" stroke-width="1.5"></path><path d="M710.14 1256.11L647.64 1445.29" stroke="#132e65" stroke-width="1.5"></path><path d="M710.14 1256.11L559.63 1414.04" stroke="#132e65" stroke-width="1.5"></path><path d="M647.64 1445.29L647.64 1445.29" stroke="#132e65" stroke-width="1.5"></path><path d="M647.64 1445.29L686.98 1607.77" stroke="#132e65" stroke-width="1.5"></path><path d="M647.64 1445.29L807.66 1537.86" stroke="#132e65" stroke-width="1.5"></path><path d="M686.98 1607.77L686.98 1607.77" stroke="#132e65" stroke-width="1.5"></path><path d="M686.98 1607.77L699.6 1711.58" stroke="#132e65" stroke-width="1.5"></path><path d="M699.6 1711.58L699.6 1711.58" stroke="#132e65" stroke-width="1.5"></path><path d="M699.6 1711.58L839.17 1738.67" stroke="#132e65" stroke-width="1.5"></path><path d="M826.32 -94.49L826.32 -94.49" stroke="#132e65" stroke-width="1.5"></path><path d="M826.32 -94.49L832.02 102.8" stroke="#132e65" stroke-width="1.5"></path><path d="M832.02 102.8L832.02 102.8" stroke="#132e65" stroke-width="1.5"></path><path d="M832.02 102.8L811.38 238.28" stroke="#132e65" stroke-width="1.5"></path><path d="M811.38 238.28L811.38 238.28" stroke="#132e65" stroke-width="1.5"></path><path d="M811.38 238.28L848.55 345.49" stroke="#132e65" stroke-width="1.5"></path><path d="M811.38 238.28L790.69 509.23" stroke="#132e65" stroke-width="1.5"></path><path d="M848.55 345.49L848.55 345.49" stroke="#132e65" stroke-width="1.5"></path><path d="M848.55 345.49L790.69 509.23" stroke="#132e65" stroke-width="1.5"></path><path d="M848.55 345.49L832.02 102.8" stroke="#132e65" stroke-width="1.5"></path><path d="M790.69 509.23L790.69 509.23" stroke="#132e65" stroke-width="1.5"></path><path d="M790.69 509.23L809.15 658.25" stroke="#132e65" stroke-width="1.5"></path><path d="M809.15 658.25L809.15 658.25" stroke="#132e65" stroke-width="1.5"></path><path d="M809.15 658.25L849.57 792.8" stroke="#132e65" stroke-width="1.5"></path><path d="M849.57 792.8L849.57 792.8" stroke="#132e65" stroke-width="1.5"></path><path d="M849.57 792.8L848.16 971.6" stroke="#132e65" stroke-width="1.5"></path><path d="M849.57 792.8L702.05 637.81" stroke="#132e65" stroke-width="1.5"></path><path d="M849.57 792.8L691.14 562.46" stroke="#132e65" stroke-width="1.5"></path><path d="M848.16 971.6L848.16 971.6" stroke="#132e65" stroke-width="1.5"></path><path d="M848.16 971.6L804.23 1122.19" stroke="#132e65" stroke-width="1.5"></path><path d="M848.16 971.6L654.05 1151.71" stroke="#132e65" stroke-width="1.5"></path><path d="M848.16 971.6L809.15 658.25" stroke="#132e65" stroke-width="1.5"></path><path d="M848.16 971.6L710.14 1256.11" stroke="#132e65" stroke-width="1.5"></path><path d="M804.23 1122.19L804.23 1122.19" stroke="#132e65" stroke-width="1.5"></path><path d="M807.66 1537.86L807.66 1537.86" stroke="#132e65" stroke-width="1.5"></path><path d="M807.66 1537.86L686.98 1607.77" stroke="#132e65" stroke-width="1.5"></path><path d="M807.66 1537.86L839.17 1738.67" stroke="#132e65" stroke-width="1.5"></path><path d="M807.66 1537.86L699.6 1711.58" stroke="#132e65" stroke-width="1.5"></path><path d="M807.66 1537.86L548.46 1606.72" stroke="#132e65" stroke-width="1.5"></path><path d="M839.17 1738.67L839.17 1738.67" stroke="#132e65" stroke-width="1.5"></path><path d="M839.17 1738.67L686.98 1607.77" stroke="#132e65" stroke-width="1.5"></path><circle r="5" cx="-75.28" cy="1124.51" fill="#132e65"></circle><circle r="5" cx="-64.56" cy="1279.15" fill="#132e65"></circle><circle r="5" cx="-88.28" cy="1446.3" fill="#132e65"></circle><circle r="5" cx="-59.38" cy="1585.48" fill="#132e65"></circle><circle r="5" cx="-39.7" cy="1694.33" fill="#132e65"></circle><circle r="5" cx="58.75" cy="981.55" fill="#132e65"></circle><circle r="5" cx="81.69" cy="1144.57" fill="#132e65"></circle><circle r="5" cx="60.58" cy="1281.19" fill="#132e65"></circle><circle r="5" cx="59.18" cy="1412.52" fill="#132e65"></circle><circle r="5" cx="99.86" cy="1571.85" fill="#132e65"></circle><circle r="5" cx="56.2" cy="1688.74" fill="#132e65"></circle><circle r="5" cx="234.38" cy="857.62" fill="#132e65"></circle><circle r="5" cx="218.29" cy="943.78" fill="#132e65"></circle><circle r="5" cx="207.44" cy="1099.01" fill="#132e65"></circle><circle r="5" cx="199.36" cy="1267" fill="#132e65"></circle><circle r="5" cx="193.2" cy="1454.7" fill="#132e65"></circle><circle r="5" cx="216.73" cy="1568.13" fill="#132e65"></circle><circle r="5" cx="249.84" cy="1739.67" fill="#132e65"></circle><circle r="5" cx="369.77" cy="686.55" fill="#132e65"></circle><circle r="5" cx="367.39" cy="848.05" fill="#132e65"></circle><circle r="5" cx="390.74" cy="940.3" fill="#132e65"></circle><circle r="5" cx="358.25" cy="1150.11" fill="#132e65"></circle><circle r="5" cx="403.6" cy="1307.45" fill="#132e65"></circle><circle r="5" cx="384.33" cy="1739.76" fill="#132e65"></circle><circle r="5" cx="499.34" cy="-38.5" fill="#132e65"></circle><circle r="5" cx="553.31" cy="45.74" fill="#132e65"></circle><circle r="5" cx="542.57" cy="217.29" fill="#132e65"></circle><circle r="5" cx="510.91" cy="350.43" fill="#132e65"></circle><circle r="5" cx="524.32" cy="514.19" fill="#132e65"></circle><circle r="5" cx="533.87" cy="835.58" fill="#132e65"></circle><circle r="5" cx="527.24" cy="998.39" fill="#132e65"></circle><circle r="5" cx="499.88" cy="1137.84" fill="#132e65"></circle><circle r="5" cx="562.01" cy="1296.96" fill="#132e65"></circle><circle r="5" cx="559.63" cy="1414.04" fill="#132e65"></circle><circle r="5" cx="548.46" cy="1606.72" fill="#132e65"></circle><circle r="5" cx="545.9" cy="1692.11" fill="#132e65"></circle><circle r="5" cx="690.58" cy="-77.46" fill="#132e65"></circle><circle r="5" cx="694.13" cy="216.71" fill="#132e65"></circle><circle r="5" cx="704.61" cy="356.43" fill="#132e65"></circle><circle r="5" cx="691.14" cy="562.46" fill="#132e65"></circle><circle r="5" cx="702.05" cy="637.81" fill="#132e65"></circle><circle r="5" cx="675.67" cy="862.33" fill="#132e65"></circle><circle r="5" cx="654.05" cy="1151.71" fill="#132e65"></circle><circle r="5" cx="710.14" cy="1256.11" fill="#132e65"></circle><circle r="5" cx="647.64" cy="1445.29" fill="#132e65"></circle><circle r="5" cx="686.98" cy="1607.77" fill="#132e65"></circle><circle r="5" cx="699.6" cy="1711.58" fill="#132e65"></circle><circle r="5" cx="826.32" cy="-94.49" fill="#132e65"></circle><circle r="5" cx="832.02" cy="102.8" fill="#132e65"></circle><circle r="5" cx="811.38" cy="238.28" fill="#132e65"></circle><circle r="5" cx="848.55" cy="345.49" fill="#132e65"></circle><circle r="5" cx="790.69" cy="509.23" fill="#132e65"></circle><circle r="5" cx="809.15" cy="658.25" fill="#132e65"></circle><circle r="5" cx="849.57" cy="792.8" fill="#132e65"></circle><circle r="5" cx="848.16" cy="971.6" fill="#132e65"></circle><circle r="5" cx="804.23" cy="1122.19" fill="#132e65"></circle><circle r="5" cx="807.66" cy="1537.86" fill="#132e65"></circle><circle r="5" cx="839.17" cy="1738.67" fill="#132e65"></circle><path d="M-37.96 1288.63L-37.96 1288.63" stroke="hsl(228.5, 77.2%, 51.5%)" stroke-width="1.5"></path><path d="M-37.96 1288.63L63.79 1297.17" stroke="hsl(228.5, 77.2%, 51.5%)" stroke-width="1.5"></path><path d="M-37.96 1288.63L105.39 1430.57" stroke="hsl(228.5, 77.2%, 51.5%)" stroke-width="1.5"></path><path d="M-37.96 1288.63L42.09 1562.87" stroke="hsl(228.5, 77.2%, 51.5%)" stroke-width="1.5"></path><path d="M-37.96 1288.63L249.08 1258.93" stroke="hsl(228.5, 77.2%, 51.5%)" stroke-width="1.5"></path><path d="M-37.96 1288.63L-90.31 1593.9" stroke="hsl(228.5, 77.2%, 51.5%)" stroke-width="1.5"></path><path d="M-37.96 1288.63L227.98 1455.91" stroke="hsl(228.5, 77.2%, 51.5%)" stroke-width="1.5"></path><path d="M-90.31 1593.9L-90.31 1593.9" stroke="hsl(228.5, 77.2%, 51.5%)" stroke-width="1.5"></path><path d="M-90.31 1593.9L42.09 1562.87" stroke="hsl(228.5, 77.2%, 51.5%)" stroke-width="1.5"></path><path d="M-90.31 1593.9L77.64 1749.91" stroke="hsl(228.5, 77.2%, 51.5%)" stroke-width="1.5"></path><path d="M-90.31 1593.9L105.39 1430.57" stroke="hsl(228.5, 77.2%, 51.5%)" stroke-width="1.5"></path><path d="M105.39 1430.57L105.39 1430.57" stroke="hsl(228.5, 77.2%, 51.5%)" stroke-width="1.5"></path><path d="M105.39 1430.57L227.98 1455.91" stroke="hsl(228.5, 77.2%, 51.5%)" stroke-width="1.5"></path><path d="M105.39 1430.57L63.79 1297.17" stroke="hsl(228.5, 77.2%, 51.5%)" stroke-width="1.5"></path><path d="M105.39 1430.57L42.09 1562.87" stroke="hsl(228.5, 77.2%, 51.5%)" stroke-width="1.5"></path><path d="M105.39 1430.57L239.63 1563.93" stroke="hsl(228.5, 77.2%, 51.5%)" stroke-width="1.5"></path><path d="M105.39 1430.57L249.08 1258.93" stroke="hsl(228.5, 77.2%, 51.5%)" stroke-width="1.5"></path><path d="M372.52 1568.84L372.52 1568.84" stroke="hsl(228.5, 77.2%, 51.5%)" stroke-width="1.5"></path><path d="M372.52 1568.84L239.63 1563.93" stroke="hsl(228.5, 77.2%, 51.5%)" stroke-width="1.5"></path><path d="M372.52 1568.84L402.07 1734.86" stroke="hsl(228.5, 77.2%, 51.5%)" stroke-width="1.5"></path><path d="M372.52 1568.84L349.43 1399.15" stroke="hsl(228.5, 77.2%, 51.5%)" stroke-width="1.5"></path><path d="M522.45 837.99L522.45 837.99" stroke="hsl(228.5, 77.2%, 51.5%)" stroke-width="1.5"></path><path d="M522.45 837.99L551 970.85" stroke="hsl(228.5, 77.2%, 51.5%)" stroke-width="1.5"></path><path d="M522.45 837.99L503.63 655.45" stroke="hsl(228.5, 77.2%, 51.5%)" stroke-width="1.5"></path><path d="M500.09 1302.16L500.09 1302.16" stroke="hsl(228.5, 77.2%, 51.5%)" stroke-width="1.5"></path><path d="M500.09 1302.16L502.54 1390.39" stroke="hsl(228.5, 77.2%, 51.5%)" stroke-width="1.5"></path><path d="M500.09 1302.16L364.48 1256.44" stroke="hsl(228.5, 77.2%, 51.5%)" stroke-width="1.5"></path><path d="M500.09 1302.16L664.05 1240.96" stroke="hsl(228.5, 77.2%, 51.5%)" stroke-width="1.5"></path><path d="M502.54 1390.39L502.54 1390.39" stroke="hsl(228.5, 77.2%, 51.5%)" stroke-width="1.5"></path><path d="M502.54 1390.39L349.43 1399.15" stroke="hsl(228.5, 77.2%, 51.5%)" stroke-width="1.5"></path><path d="M502.54 1390.39L545.6 1561.97" stroke="hsl(228.5, 77.2%, 51.5%)" stroke-width="1.5"></path><path d="M502.54 1390.39L675.57 1437.06" stroke="hsl(228.5, 77.2%, 51.5%)" stroke-width="1.5"></path><path d="M677.27 228.92L677.27 228.92" stroke="hsl(228.5, 77.2%, 51.5%)" stroke-width="1.5"></path><path d="M677.27 228.92L704.42 352.72" stroke="hsl(228.5, 77.2%, 51.5%)" stroke-width="1.5"></path><path d="M677.27 228.92L807.52 219.08" stroke="hsl(228.5, 77.2%, 51.5%)" stroke-width="1.5"></path><path d="M677.27 228.92L647.51 67.33" stroke="hsl(228.5, 77.2%, 51.5%)" stroke-width="1.5"></path><path d="M677.27 228.92L811.97 78.67" stroke="hsl(228.5, 77.2%, 51.5%)" stroke-width="1.5"></path><path d="M704.42 352.72L704.42 352.72" stroke="hsl(228.5, 77.2%, 51.5%)" stroke-width="1.5"></path><path d="M704.42 352.72L848.03 356.12" stroke="hsl(228.5, 77.2%, 51.5%)" stroke-width="1.5"></path><path d="M704.42 352.72L645.53 505.95" stroke="hsl(228.5, 77.2%, 51.5%)" stroke-width="1.5"></path><path d="M700.36 1737.3L700.36 1737.3" stroke="hsl(228.5, 77.2%, 51.5%)" stroke-width="1.5"></path><path d="M700.36 1737.3L857.03 1735.31" stroke="hsl(228.5, 77.2%, 51.5%)" stroke-width="1.5"></path><path d="M700.36 1737.3L683.25 1538.24" stroke="hsl(228.5, 77.2%, 51.5%)" stroke-width="1.5"></path><path d="M700.36 1737.3L545.6 1561.97" stroke="hsl(228.5, 77.2%, 51.5%)" stroke-width="1.5"></path><path d="M700.36 1737.3L402.07 1734.86" stroke="hsl(228.5, 77.2%, 51.5%)" stroke-width="1.5"></path><path d="M700.36 1737.3L675.57 1437.06" stroke="hsl(228.5, 77.2%, 51.5%)" stroke-width="1.5"></path><path d="M700.36 1737.3L820.76 1447.94" stroke="hsl(228.5, 77.2%, 51.5%)" stroke-width="1.5"></path><path d="M814.01 -91.55L814.01 -91.55" stroke="hsl(228.5, 77.2%, 51.5%)" stroke-width="1.5"></path><path d="M814.01 -91.55L661.55 -76.03" stroke="hsl(228.5, 77.2%, 51.5%)" stroke-width="1.5"></path><path d="M814.01 -91.55L811.97 78.67" stroke="hsl(228.5, 77.2%, 51.5%)" stroke-width="1.5"></path><path d="M807.52 219.08L807.52 219.08" stroke="hsl(228.5, 77.2%, 51.5%)" stroke-width="1.5"></path><path d="M807.52 219.08L811.97 78.67" stroke="hsl(228.5, 77.2%, 51.5%)" stroke-width="1.5"></path><path d="M811.34 497.56L811.34 497.56" stroke="hsl(228.5, 77.2%, 51.5%)" stroke-width="1.5"></path><path d="M811.34 497.56L848.03 356.12" stroke="hsl(228.5, 77.2%, 51.5%)" stroke-width="1.5"></path><path d="M811.34 497.56L645.53 505.95" stroke="hsl(228.5, 77.2%, 51.5%)" stroke-width="1.5"></path><path d="M840.63 812.45L840.63 812.45" stroke="hsl(228.5, 77.2%, 51.5%)" stroke-width="1.5"></path><path d="M840.63 812.45L842.42 692.01" stroke="hsl(228.5, 77.2%, 51.5%)" stroke-width="1.5"></path><path d="M840.63 812.45L788.7 985.97" stroke="hsl(228.5, 77.2%, 51.5%)" stroke-width="1.5"></path><path d="M840.63 812.45L676.12 689.27" stroke="hsl(228.5, 77.2%, 51.5%)" stroke-width="1.5"></path><path d="M840.63 812.45L674.54 986.96" stroke="hsl(228.5, 77.2%, 51.5%)" stroke-width="1.5"></path><path d="M840.63 812.45L855.94 1104.86" stroke="hsl(228.5, 77.2%, 51.5%)" stroke-width="1.5"></path><path d="M840.63 812.45L811.34 497.56" stroke="hsl(228.5, 77.2%, 51.5%)" stroke-width="1.5"></path><path d="M796.38 1246.51L796.38 1246.51" stroke="hsl(228.5, 77.2%, 51.5%)" stroke-width="1.5"></path><path d="M796.38 1246.51L664.05 1240.96" stroke="hsl(228.5, 77.2%, 51.5%)" stroke-width="1.5"></path><path d="M796.38 1246.51L855.94 1104.86" stroke="hsl(228.5, 77.2%, 51.5%)" stroke-width="1.5"></path><path d="M796.38 1246.51L678.08 1120.39" stroke="hsl(228.5, 77.2%, 51.5%)" stroke-width="1.5"></path><path d="M796.38 1246.51L820.76 1447.94" stroke="hsl(228.5, 77.2%, 51.5%)" stroke-width="1.5"></path><path d="M796.38 1246.51L675.57 1437.06" stroke="hsl(228.5, 77.2%, 51.5%)" stroke-width="1.5"></path><path d="M63.79 1297.17L63.79 1297.17" stroke="hsl(228.5, 77.2%, 51.5%)" stroke-width="1.5"></path><path d="M63.79 1297.17L249.08 1258.93" stroke="hsl(228.5, 77.2%, 51.5%)" stroke-width="1.5"></path><path d="M42.09 1562.87L42.09 1562.87" stroke="hsl(228.5, 77.2%, 51.5%)" stroke-width="1.5"></path><path d="M77.64 1749.91L77.64 1749.91" stroke="hsl(228.5, 77.2%, 51.5%)" stroke-width="1.5"></path><path d="M77.64 1749.91L207.9 1749.24" stroke="hsl(228.5, 77.2%, 51.5%)" stroke-width="1.5"></path><path d="M77.64 1749.91L42.09 1562.87" stroke="hsl(228.5, 77.2%, 51.5%)" stroke-width="1.5"></path><path d="M77.64 1749.91L239.63 1563.93" stroke="hsl(228.5, 77.2%, 51.5%)" stroke-width="1.5"></path><path d="M77.64 1749.91L105.39 1430.57" stroke="hsl(228.5, 77.2%, 51.5%)" stroke-width="1.5"></path><path d="M77.64 1749.91L402.07 1734.86" stroke="hsl(228.5, 77.2%, 51.5%)" stroke-width="1.5"></path><path d="M249.08 1258.93L249.08 1258.93" stroke="hsl(228.5, 77.2%, 51.5%)" stroke-width="1.5"></path><path d="M249.08 1258.93L364.48 1256.44" stroke="hsl(228.5, 77.2%, 51.5%)" stroke-width="1.5"></path><path d="M249.08 1258.93L349.43 1399.15" stroke="hsl(228.5, 77.2%, 51.5%)" stroke-width="1.5"></path><path d="M249.08 1258.93L227.98 1455.91" stroke="hsl(228.5, 77.2%, 51.5%)" stroke-width="1.5"></path><path d="M249.08 1258.93L409.03 1106.98" stroke="hsl(228.5, 77.2%, 51.5%)" stroke-width="1.5"></path><path d="M227.98 1455.91L227.98 1455.91" stroke="hsl(228.5, 77.2%, 51.5%)" stroke-width="1.5"></path><path d="M227.98 1455.91L239.63 1563.93" stroke="hsl(228.5, 77.2%, 51.5%)" stroke-width="1.5"></path><path d="M227.98 1455.91L349.43 1399.15" stroke="hsl(228.5, 77.2%, 51.5%)" stroke-width="1.5"></path><path d="M227.98 1455.91L372.52 1568.84" stroke="hsl(228.5, 77.2%, 51.5%)" stroke-width="1.5"></path><path d="M239.63 1563.93L239.63 1563.93" stroke="hsl(228.5, 77.2%, 51.5%)" stroke-width="1.5"></path><path d="M207.9 1749.24L207.9 1749.24" stroke="hsl(228.5, 77.2%, 51.5%)" stroke-width="1.5"></path><path d="M207.9 1749.24L239.63 1563.93" stroke="hsl(228.5, 77.2%, 51.5%)" stroke-width="1.5"></path><path d="M207.9 1749.24L402.07 1734.86" stroke="hsl(228.5, 77.2%, 51.5%)" stroke-width="1.5"></path><path d="M207.9 1749.24L372.52 1568.84" stroke="hsl(228.5, 77.2%, 51.5%)" stroke-width="1.5"></path><path d="M207.9 1749.24L42.09 1562.87" stroke="hsl(228.5, 77.2%, 51.5%)" stroke-width="1.5"></path><path d="M207.9 1749.24L227.98 1455.91" stroke="hsl(228.5, 77.2%, 51.5%)" stroke-width="1.5"></path><path d="M409.03 1106.98L409.03 1106.98" stroke="hsl(228.5, 77.2%, 51.5%)" stroke-width="1.5"></path><path d="M409.03 1106.98L364.48 1256.44" stroke="hsl(228.5, 77.2%, 51.5%)" stroke-width="1.5"></path><path d="M409.03 1106.98L551 970.85" stroke="hsl(228.5, 77.2%, 51.5%)" stroke-width="1.5"></path><path d="M364.48 1256.44L364.48 1256.44" stroke="hsl(228.5, 77.2%, 51.5%)" stroke-width="1.5"></path><path d="M349.43 1399.15L349.43 1399.15" stroke="hsl(228.5, 77.2%, 51.5%)" stroke-width="1.5"></path><path d="M349.43 1399.15L364.48 1256.44" stroke="hsl(228.5, 77.2%, 51.5%)" stroke-width="1.5"></path><path d="M402.07 1734.86L402.07 1734.86" stroke="hsl(228.5, 77.2%, 51.5%)" stroke-width="1.5"></path><path d="M402.07 1734.86L545.6 1561.97" stroke="hsl(228.5, 77.2%, 51.5%)" stroke-width="1.5"></path><path d="M402.07 1734.86L239.63 1563.93" stroke="hsl(228.5, 77.2%, 51.5%)" stroke-width="1.5"></path><path d="M562.43 539.2L562.43 539.2" stroke="hsl(228.5, 77.2%, 51.5%)" stroke-width="1.5"></path><path d="M562.43 539.2L645.53 505.95" stroke="hsl(228.5, 77.2%, 51.5%)" stroke-width="1.5"></path><path d="M562.43 539.2L503.63 655.45" stroke="hsl(228.5, 77.2%, 51.5%)" stroke-width="1.5"></path><path d="M562.43 539.2L676.12 689.27" stroke="hsl(228.5, 77.2%, 51.5%)" stroke-width="1.5"></path><path d="M562.43 539.2L704.42 352.72" stroke="hsl(228.5, 77.2%, 51.5%)" stroke-width="1.5"></path><path d="M503.63 655.45L503.63 655.45" stroke="hsl(228.5, 77.2%, 51.5%)" stroke-width="1.5"></path><path d="M503.63 655.45L676.12 689.27" stroke="hsl(228.5, 77.2%, 51.5%)" stroke-width="1.5"></path><path d="M503.63 655.45L645.53 505.95" stroke="hsl(228.5, 77.2%, 51.5%)" stroke-width="1.5"></path><path d="M551 970.85L551 970.85" stroke="hsl(228.5, 77.2%, 51.5%)" stroke-width="1.5"></path><path d="M551 970.85L674.54 986.96" stroke="hsl(228.5, 77.2%, 51.5%)" stroke-width="1.5"></path><path d="M551 970.85L678.08 1120.39" stroke="hsl(228.5, 77.2%, 51.5%)" stroke-width="1.5"></path><path d="M545.6 1561.97L545.6 1561.97" stroke="hsl(228.5, 77.2%, 51.5%)" stroke-width="1.5"></path><path d="M545.6 1561.97L683.25 1538.24" stroke="hsl(228.5, 77.2%, 51.5%)" stroke-width="1.5"></path><path d="M545.6 1561.97L372.52 1568.84" stroke="hsl(228.5, 77.2%, 51.5%)" stroke-width="1.5"></path><path d="M661.55 -76.03L661.55 -76.03" stroke="hsl(228.5, 77.2%, 51.5%)" stroke-width="1.5"></path><path d="M661.55 -76.03L647.51 67.33" stroke="hsl(228.5, 77.2%, 51.5%)" stroke-width="1.5"></path><path d="M661.55 -76.03L811.97 78.67" stroke="hsl(228.5, 77.2%, 51.5%)" stroke-width="1.5"></path><path d="M661.55 -76.03L677.27 228.92" stroke="hsl(228.5, 77.2%, 51.5%)" stroke-width="1.5"></path><path d="M647.51 67.33L647.51 67.33" stroke="hsl(228.5, 77.2%, 51.5%)" stroke-width="1.5"></path><path d="M647.51 67.33L811.97 78.67" stroke="hsl(228.5, 77.2%, 51.5%)" stroke-width="1.5"></path><path d="M647.51 67.33L807.52 219.08" stroke="hsl(228.5, 77.2%, 51.5%)" stroke-width="1.5"></path><path d="M645.53 505.95L645.53 505.95" stroke="hsl(228.5, 77.2%, 51.5%)" stroke-width="1.5"></path><path d="M645.53 505.95L676.12 689.27" stroke="hsl(228.5, 77.2%, 51.5%)" stroke-width="1.5"></path><path d="M645.53 505.95L848.03 356.12" stroke="hsl(228.5, 77.2%, 51.5%)" stroke-width="1.5"></path><path d="M676.12 689.27L676.12 689.27" stroke="hsl(228.5, 77.2%, 51.5%)" stroke-width="1.5"></path><path d="M676.12 689.27L842.42 692.01" stroke="hsl(228.5, 77.2%, 51.5%)" stroke-width="1.5"></path><path d="M674.54 986.96L674.54 986.96" stroke="hsl(228.5, 77.2%, 51.5%)" stroke-width="1.5"></path><path d="M674.54 986.96L788.7 985.97" stroke="hsl(228.5, 77.2%, 51.5%)" stroke-width="1.5"></path><path d="M674.54 986.96L678.08 1120.39" stroke="hsl(228.5, 77.2%, 51.5%)" stroke-width="1.5"></path><path d="M674.54 986.96L522.45 837.99" stroke="hsl(228.5, 77.2%, 51.5%)" stroke-width="1.5"></path><path d="M674.54 986.96L855.94 1104.86" stroke="hsl(228.5, 77.2%, 51.5%)" stroke-width="1.5"></path><path d="M678.08 1120.39L678.08 1120.39" stroke="hsl(228.5, 77.2%, 51.5%)" stroke-width="1.5"></path><path d="M678.08 1120.39L664.05 1240.96" stroke="hsl(228.5, 77.2%, 51.5%)" stroke-width="1.5"></path><path d="M678.08 1120.39L788.7 985.97" stroke="hsl(228.5, 77.2%, 51.5%)" stroke-width="1.5"></path><path d="M664.05 1240.96L664.05 1240.96" stroke="hsl(228.5, 77.2%, 51.5%)" stroke-width="1.5"></path><path d="M675.57 1437.06L675.57 1437.06" stroke="hsl(228.5, 77.2%, 51.5%)" stroke-width="1.5"></path><path d="M675.57 1437.06L683.25 1538.24" stroke="hsl(228.5, 77.2%, 51.5%)" stroke-width="1.5"></path><path d="M675.57 1437.06L820.76 1447.94" stroke="hsl(228.5, 77.2%, 51.5%)" stroke-width="1.5"></path><path d="M683.25 1538.24L683.25 1538.24" stroke="hsl(228.5, 77.2%, 51.5%)" stroke-width="1.5"></path><path d="M683.25 1538.24L820.76 1447.94" stroke="hsl(228.5, 77.2%, 51.5%)" stroke-width="1.5"></path><path d="M683.25 1538.24L502.54 1390.39" stroke="hsl(228.5, 77.2%, 51.5%)" stroke-width="1.5"></path><path d="M683.25 1538.24L857.03 1735.31" stroke="hsl(228.5, 77.2%, 51.5%)" stroke-width="1.5"></path><path d="M811.97 78.67L811.97 78.67" stroke="hsl(228.5, 77.2%, 51.5%)" stroke-width="1.5"></path><path d="M848.03 356.12L848.03 356.12" stroke="hsl(228.5, 77.2%, 51.5%)" stroke-width="1.5"></path><path d="M848.03 356.12L807.52 219.08" stroke="hsl(228.5, 77.2%, 51.5%)" stroke-width="1.5"></path><path d="M848.03 356.12L677.27 228.92" stroke="hsl(228.5, 77.2%, 51.5%)" stroke-width="1.5"></path><path d="M842.42 692.01L842.42 692.01" stroke="hsl(228.5, 77.2%, 51.5%)" stroke-width="1.5"></path><path d="M788.7 985.97L788.7 985.97" stroke="hsl(228.5, 77.2%, 51.5%)" stroke-width="1.5"></path><path d="M788.7 985.97L855.94 1104.86" stroke="hsl(228.5, 77.2%, 51.5%)" stroke-width="1.5"></path><path d="M855.94 1104.86L855.94 1104.86" stroke="hsl(228.5, 77.2%, 51.5%)" stroke-width="1.5"></path><path d="M820.76 1447.94L820.76 1447.94" stroke="hsl(228.5, 77.2%, 51.5%)" stroke-width="1.5"></path><path d="M857.03 1735.31L857.03 1735.31" stroke="hsl(228.5, 77.2%, 51.5%)" stroke-width="1.5"></path><circle r="25" cx="-37.96" cy="1288.63" fill="url(&quot;#SvgjsRadialGradient1058&quot;)"></circle><circle r="25" cx="-90.31" cy="1593.9" fill="url(&quot;#SvgjsRadialGradient1058&quot;)"></circle><circle r="25" cx="105.39" cy="1430.57" fill="url(&quot;#SvgjsRadialGradient1058&quot;)"></circle><circle r="25" cx="372.52" cy="1568.84" fill="url(&quot;#SvgjsRadialGradient1058&quot;)"></circle><circle r="25" cx="522.45" cy="837.99" fill="url(&quot;#SvgjsRadialGradient1058&quot;)"></circle><circle r="25" cx="500.09" cy="1302.16" fill="url(&quot;#SvgjsRadialGradient1058&quot;)"></circle><circle r="25" cx="502.54" cy="1390.39" fill="url(&quot;#SvgjsRadialGradient1058&quot;)"></circle><circle r="25" cx="677.27" cy="228.92" fill="url(&quot;#SvgjsRadialGradient1058&quot;)"></circle><circle r="25" cx="704.42" cy="352.72" fill="url(&quot;#SvgjsRadialGradient1058&quot;)"></circle><circle r="25" cx="700.36" cy="1737.3" fill="url(&quot;#SvgjsRadialGradient1058&quot;)"></circle><circle r="25" cx="814.01" cy="-91.55" fill="url(&quot;#SvgjsRadialGradient1058&quot;)"></circle><circle r="25" cx="807.52" cy="219.08" fill="url(&quot;#SvgjsRadialGradient1058&quot;)"></circle><circle r="25" cx="811.34" cy="497.56" fill="url(&quot;#SvgjsRadialGradient1058&quot;)"></circle><circle r="25" cx="840.63" cy="812.45" fill="url(&quot;#SvgjsRadialGradient1058&quot;)"></circle><circle r="25" cx="796.38" cy="1246.51" fill="url(&quot;#SvgjsRadialGradient1058&quot;)"></circle><circle r="5" cx="63.79" cy="1297.17" fill="#8b9ad9"></circle><circle r="5" cx="42.09" cy="1562.87" fill="#8b9ad9"></circle><circle r="5" cx="77.64" cy="1749.91" fill="#8b9ad9"></circle><circle r="5" cx="249.08" cy="1258.93" fill="#8b9ad9"></circle><circle r="5" cx="227.98" cy="1455.91" fill="#8b9ad9"></circle><circle r="5" cx="239.63" cy="1563.93" fill="#8b9ad9"></circle><circle r="5" cx="207.9" cy="1749.24" fill="#8b9ad9"></circle><circle r="5" cx="409.03" cy="1106.98" fill="#8b9ad9"></circle><circle r="5" cx="364.48" cy="1256.44" fill="#8b9ad9"></circle><circle r="5" cx="349.43" cy="1399.15" fill="#8b9ad9"></circle><circle r="5" cx="402.07" cy="1734.86" fill="#8b9ad9"></circle><circle r="5" cx="562.43" cy="539.2" fill="#8b9ad9"></circle><circle r="5" cx="503.63" cy="655.45" fill="#8b9ad9"></circle><circle r="5" cx="551" cy="970.85" fill="#8b9ad9"></circle><circle r="5" cx="545.6" cy="1561.97" fill="#8b9ad9"></circle><circle r="5" cx="661.55" cy="-76.03" fill="#8b9ad9"></circle><circle r="5" cx="647.51" cy="67.33" fill="#8b9ad9"></circle><circle r="5" cx="645.53" cy="505.95" fill="#8b9ad9"></circle><circle r="5" cx="676.12" cy="689.27" fill="#8b9ad9"></circle><circle r="5" cx="674.54" cy="986.96" fill="#8b9ad9"></circle><circle r="5" cx="678.08" cy="1120.39" fill="#8b9ad9"></circle><circle r="5" cx="664.05" cy="1240.96" fill="#8b9ad9"></circle><circle r="5" cx="675.57" cy="1437.06" fill="#8b9ad9"></circle><circle r="5" cx="683.25" cy="1538.24" fill="#8b9ad9"></circle><circle r="5" cx="811.97" cy="78.67" fill="#8b9ad9"></circle><circle r="5" cx="848.03" cy="356.12" fill="#8b9ad9"></circle><circle r="5" cx="842.42" cy="692.01" fill="#8b9ad9"></circle><circle r="5" cx="788.7" cy="985.97" fill="#8b9ad9"></circle><circle r="5" cx="855.94" cy="1104.86" fill="#8b9ad9"></circle><circle r="5" cx="820.76" cy="1447.94" fill="#8b9ad9"></circle><circle r="5" cx="857.03" cy="1735.31" fill="#8b9ad9"></circle></g><defs><mask id="SvgjsMask1056"><rect width="720" height="1612" fill="#ffffff"></rect></mask><linearGradient x1="-30.97%" y1="13.83%" x2="130.97%" y2="86.17%" gradientUnits="userSpaceOnUse" id="SvgjsLinearGradient1057"><stop stop-color="#0e2a47" offset="0"></stop><stop stop-color="#00459e" offset="1"></stop></linearGradient><radialGradient id="SvgjsRadialGradient1058"><stop stop-color="#ffffff" offset="0.1"></stop><stop stop-color="#1735b3" offset="0.2"></stop><stop stop-color="rgba(23, 53, 179, 0)" offset="1"></stop></radialGradient></defs></svg>